<?xml version="1.0" encoding="utf-8"?>
<!-- Generator: Adobe Illustrator 27.5.0, SVG Export Plug-In . SVG Version: 6.00 Build 0)  -->
<svg version="1.1" xmlns="http://www.w3.org/2000/svg" xmlns:xlink="http://www.w3.org/1999/xlink" x="0px" y="0px"
	 viewBox="0 0 500 500" style="enable-background:new 0 0 500 500;" xml:space="preserve">
<g id="Background_Complete">
	<g>
		<rect y="382.398" style="fill:#EBEBEB;" width="500" height="0.25"/>
		<rect x="416.779" y="398.494" style="fill:#EBEBEB;" width="33.122" height="0.25"/>
		<rect x="322.527" y="401.208" style="fill:#EBEBEB;" width="8.693" height="0.25"/>
		<rect x="396.586" y="389.208" style="fill:#EBEBEB;" width="19.192" height="0.25"/>
		<rect x="52.459" y="390.888" style="fill:#EBEBEB;" width="43.193" height="0.25"/>
		<rect x="104.556" y="390.888" style="fill:#EBEBEB;" width="6.333" height="0.25"/>
		<rect x="131.471" y="395.111" style="fill:#EBEBEB;" width="93.676" height="0.25"/>
		<path style="fill:#EBEBEB;" d="M237.014,337.8H43.915c-3.147,0-5.708-2.561-5.708-5.708V60.66c0-3.147,2.561-5.708,5.708-5.708
			h193.099c3.146,0,5.707,2.561,5.707,5.708v271.432C242.721,335.239,240.16,337.8,237.014,337.8z M43.915,55.203
			c-3.01,0-5.458,2.448-5.458,5.458v271.432c0,3.01,2.448,5.458,5.458,5.458h193.099c3.009,0,5.457-2.448,5.457-5.458V60.66
			c0-3.009-2.448-5.458-5.457-5.458H43.915z"/>
		<path style="fill:#EBEBEB;" d="M453.31,337.8H260.212c-3.147,0-5.707-2.561-5.707-5.708V60.66c0-3.147,2.561-5.708,5.707-5.708
			H453.31c3.148,0,5.708,2.561,5.708,5.708v271.432C459.019,335.239,456.458,337.8,453.31,337.8z M260.212,55.203
			c-3.009,0-5.457,2.448-5.457,5.458v271.432c0,3.01,2.448,5.458,5.457,5.458H453.31c3.01,0,5.458-2.448,5.458-5.458V60.66
			c0-3.009-2.448-5.458-5.458-5.458H260.212z"/>
	</g>
	<g>
		<g>
			<rect x="142.411" y="264.174" style="fill:#EBEBEB;" width="145.068" height="92.279"/>
			<rect x="142.411" y="264.174" style="fill:#E0E0E0;" width="145.068" height="6.253"/>
			<circle style="fill:#FAFAFA;" cx="283.438" cy="267.301" r="1.884"/>
			<circle style="fill:#FAFAFA;" cx="277.178" cy="267.301" r="1.884"/>
			<circle style="fill:#FAFAFA;" cx="270.918" cy="267.301" r="1.884"/>
		</g>
		<g>
			<rect x="223.443" y="289.958" style="fill:#F5F5F5;" width="145.068" height="92.279"/>
			<rect x="223.443" y="289.958" style="fill:#E0E0E0;" width="145.068" height="6.253"/>
			<path style="fill:#FAFAFA;" d="M366.354,293.085c0,1.04-0.843,1.884-1.884,1.884c-1.04,0-1.884-0.843-1.884-1.884
				c0-1.04,0.843-1.884,1.884-1.884C365.51,291.201,366.354,292.044,366.354,293.085z"/>
			<path style="fill:#FAFAFA;" d="M360.094,293.085c0,1.04-0.843,1.884-1.884,1.884c-1.04,0-1.884-0.843-1.884-1.884
				c0-1.04,0.843-1.884,1.884-1.884C359.25,291.201,360.094,292.044,360.094,293.085z"/>
			<path style="fill:#FAFAFA;" d="M353.833,293.085c0,1.04-0.843,1.884-1.884,1.884c-1.04,0-1.884-0.843-1.884-1.884
				c0-1.04,0.843-1.884,1.884-1.884C352.99,291.201,353.833,292.044,353.833,293.085z"/>
		</g>
		<path style="fill:#EBEBEB;" d="M265.223,86.885c-0.123,0-0.244,0.012-0.365,0.018c0.155-0.848,0.248-1.718,0.248-2.611
			c0-7.95-6.445-14.395-14.395-14.395c-0.037,0-0.073,0.005-0.11,0.006c-1.9-3.286-5.444-5.503-9.513-5.503
			c-4.234,0-7.903,2.398-9.738,5.906c-0.983-0.258-2.009-0.409-3.073-0.409c-6.532,0-11.842,5.178-12.082,11.652
			c-2.689,2.001-4.439,5.194-4.439,8.803c0,6.063,4.915,10.978,10.978,10.978c0.909,0,1.787-0.123,2.632-0.331h37.693
			c0.684,0.215,1.41,0.331,2.165,0.331c3.989,0,7.223-3.234,7.223-7.223C272.446,90.119,269.212,86.885,265.223,86.885z"/>
		<path style="fill:#EBEBEB;" d="M380.692,115.271c-0.095,0-0.187,0.009-0.28,0.014c0.119-0.649,0.19-1.316,0.19-1.999
			c0-6.087-4.934-11.021-11.021-11.021c-0.029,0-0.056,0.004-0.085,0.004c-1.455-2.516-4.168-4.213-7.283-4.213
			c-3.242,0-6.051,1.836-7.456,4.522c-0.752-0.197-1.538-0.313-2.353-0.313c-5.001,0-9.067,3.965-9.251,8.921
			c-2.059,1.532-3.399,3.977-3.399,6.74c0,4.642,3.763,8.405,8.405,8.405c0.804,0,1.58-0.12,2.317-0.331h28.346
			c0.585,0.21,1.212,0.331,1.869,0.331c3.054,0,5.53-2.476,5.53-5.53C386.222,117.747,383.747,115.271,380.692,115.271z"/>
		<path style="fill:#EBEBEB;" d="M152.692,123.271c-0.094,0-0.187,0.009-0.28,0.014c0.119-0.649,0.19-1.316,0.19-1.999
			c0-6.087-4.934-11.021-11.021-11.021c-0.029,0-0.056,0.004-0.085,0.004c-1.455-2.516-4.168-4.213-7.283-4.213
			c-3.242,0-6.051,1.836-7.456,4.522c-0.752-0.197-1.538-0.313-2.353-0.313c-5.001,0-9.067,3.965-9.251,8.921
			c-2.059,1.532-3.399,3.977-3.399,6.74c0,4.642,3.763,8.405,8.405,8.405c0.804,0,1.58-0.12,2.317-0.331h28.346
			c0.585,0.21,1.212,0.331,1.869,0.331c3.054,0,5.53-2.476,5.53-5.53S155.747,123.271,152.692,123.271z"/>
		<g>
			<path style="fill:#E0E0E0;" d="M78.782,346.781l-1.258-1.749c-0.46-0.64-1.195-1.025-1.959-1.025h-8.861
				c-0.763,0-1.454,0.385-1.84,1.025l-1.056,1.749c-0.386,0.64-1.077,1.025-1.84,1.025h-5.288c-1.261,0-2.223,1.031-2.15,2.302
				l1.712,29.591C56.317,380.97,57.399,382,58.66,382h41.906c1.261,0,2.223-1.03,2.149-2.302l-1.712-29.591
				c-0.074-1.271-1.155-2.302-2.416-2.302H80.74C79.977,347.806,79.242,347.421,78.782,346.781z"/>
			<path style="fill:#F0F0F0;" d="M102.776,350.626H64.384c-1.601,0-3.014,1.287-3.157,2.875l-2.308,25.624
				c-0.143,1.588,1.039,2.875,2.639,2.875H99.95c1.601,0,3.014-1.287,3.157-2.875l2.308-25.624
				C105.559,351.913,104.377,350.626,102.776,350.626z"/>
		</g>
		<g>
			<path style="fill:#E0E0E0;" d="M417.714,347.203l-1.258-1.75c-0.46-0.64-1.195-1.025-1.958-1.025h-8.861
				c-0.763,0-1.454,0.385-1.84,1.025l-1.055,1.75c-0.386,0.64-1.077,1.025-1.84,1.025h-5.288c-1.261,0-2.223,1.03-2.15,2.302
				l1.712,29.591c0.074,1.271,1.155,2.302,2.416,2.302h41.906c1.261,0,2.223-1.031,2.149-2.302l-1.712-29.591
				c-0.074-1.271-1.155-2.302-2.416-2.302h-17.848C418.909,348.228,418.174,347.843,417.714,347.203z"/>
			<path style="fill:#F0F0F0;" d="M441.709,351.047h-38.392c-1.601,0-3.014,1.287-3.157,2.875l-2.308,25.625
				c-0.143,1.588,1.039,2.875,2.639,2.875h38.392c1.601,0,3.014-1.287,3.157-2.875l2.308-25.625
				C444.491,352.335,443.309,351.047,441.709,351.047z"/>
		</g>
		<g>
			<path style="fill:#E0E0E0;" d="M296.97,323.294l-1.258-1.75c-0.46-0.64-1.195-1.025-1.959-1.025h-8.861
				c-0.763,0-1.454,0.385-1.84,1.025l-1.056,1.75c-0.386,0.64-1.077,1.025-1.84,1.025h-5.288c-1.261,0-2.223,1.031-2.15,2.302
				l1.712,29.591c0.074,1.271,1.155,2.302,2.416,2.302h41.906c1.261,0,2.223-1.03,2.15-2.302l-1.712-29.591
				c-0.074-1.271-1.155-2.302-2.416-2.302h-17.848C298.166,324.319,297.431,323.934,296.97,323.294z"/>
			<path style="fill:#F0F0F0;" d="M320.965,327.138h-38.392c-1.601,0-3.014,1.287-3.157,2.875l-2.308,25.625
				c-0.143,1.588,1.039,2.875,2.639,2.875h38.392c1.601,0,3.014-1.287,3.157-2.875l2.308-25.625
				C323.747,328.426,322.566,327.138,320.965,327.138z"/>
		</g>
	</g>
</g>
<g id="Background_Simple" style="display:none;">
	<g style="display:inline;">
		<path style="fill:#407BFF;" d="M122.878,95.319c19.002-12.331,44.959-14.711,65.217-3.972
			c61.639,32.676,31.571,124.875,89.969,160.281c25.715,15.59,60.601,5.632,88.863,11.112c15.552,3.016,30.402,13.274,35.512,28.769
			c11.608,35.211-16.903,65.846-44.316,83.424c-74.389,47.7-177.769,19.546-232.19-45.369c-6.57-7.837-12.509-16.206-17.692-25.023
			c-19.384-32.974-27.314-71.954-25.68-109.958C84.072,159.415,91.044,115.976,122.878,95.319z"/>
		<path style="opacity:0.9;fill:#FFFFFF;enable-background:new    ;" d="M122.878,95.319c19.002-12.331,44.959-14.711,65.217-3.972
			c61.639,32.676,31.571,124.875,89.969,160.281c25.715,15.59,60.601,5.632,88.863,11.112c15.552,3.016,30.402,13.274,35.512,28.769
			c11.608,35.211-16.903,65.846-44.316,83.424c-74.389,47.7-177.769,19.546-232.19-45.369c-6.57-7.837-12.509-16.206-17.692-25.023
			c-19.384-32.974-27.314-71.954-25.68-109.958C84.072,159.415,91.044,115.976,122.878,95.319z"/>
	</g>
</g>
<g id="Shadow_1_">
	<ellipse id="_x3C_Path_x3E__359_" style="fill:#F5F5F5;" cx="250" cy="416.238" rx="193.889" ry="11.323"/>
</g>
<g id="Script">
	<g>
		<g>
			<path style="fill:#407BFF;" d="M161.628,305.909h-99.68c-1.31,0-2.372-1.062-2.372-2.372V129.386c0-1.31,1.062-2.372,2.372-2.372
				h99.68c1.31,0,2.372,1.062,2.372,2.372v174.151C164,304.847,162.938,305.909,161.628,305.909z"/>
			<path style="opacity:0.7;fill:#FFFFFF;enable-background:new    ;" d="M161.628,305.909h-99.68c-1.31,0-2.372-1.062-2.372-2.372
				V129.386c0-1.31,1.062-2.372,2.372-2.372h99.68c1.31,0,2.372,1.062,2.372,2.372v174.151
				C164,304.847,162.938,305.909,161.628,305.909z"/>
		</g>
		<g>
			<rect x="66.667" y="149.676" style="fill:#407BFF;" width="19.667" height="2.667"/>
			<rect x="66.667" y="155.676" style="fill:#407BFF;" width="19.667" height="2.667"/>
			<rect x="136.711" y="149.676" style="fill:#407BFF;" width="19.667" height="2.667"/>
			<rect x="100.044" y="137.333" style="fill:#407BFF;" width="19.667" height="2.667"/>
			<rect x="66.667" y="132.667" style="fill:#407BFF;" width="89.711" height="2.667"/>
			<rect x="76.673" y="164" style="fill:#407BFF;" width="79.704" height="2.667"/>
			<rect x="66.667" y="169.333" style="fill:#407BFF;" width="89.711" height="2.667"/>
			<rect x="66.667" y="174.667" style="fill:#407BFF;" width="89.711" height="2.667"/>
			<rect x="66.667" y="180" style="fill:#407BFF;" width="89.711" height="2.667"/>
			<rect x="66.667" y="185.333" style="fill:#407BFF;" width="79.704" height="2.667"/>
			<rect x="76.673" y="195.02" style="fill:#407BFF;" width="79.704" height="2.667"/>
			<rect x="66.667" y="200.353" style="fill:#407BFF;" width="89.711" height="2.667"/>
			<rect x="66.667" y="205.686" style="fill:#407BFF;" width="89.711" height="2.667"/>
			<rect x="66.667" y="211.02" style="fill:#407BFF;" width="89.711" height="2.667"/>
			<rect x="66.667" y="216.353" style="fill:#407BFF;" width="79.704" height="2.667"/>
			<rect x="76.673" y="226.039" style="fill:#407BFF;" width="79.704" height="2.667"/>
			<rect x="66.667" y="231.372" style="fill:#407BFF;" width="89.711" height="2.667"/>
			<rect x="66.667" y="236.706" style="fill:#407BFF;" width="89.711" height="2.667"/>
			<rect x="66.667" y="242.039" style="fill:#407BFF;" width="89.711" height="2.667"/>
			<rect x="66.667" y="247.372" style="fill:#407BFF;" width="79.704" height="2.667"/>
			<rect x="76.673" y="258.059" style="fill:#407BFF;" width="79.704" height="2.667"/>
			<rect x="66.667" y="263.392" style="fill:#407BFF;" width="89.711" height="2.667"/>
			<rect x="66.667" y="268.726" style="fill:#407BFF;" width="89.711" height="2.667"/>
			<rect x="66.667" y="274.059" style="fill:#407BFF;" width="89.711" height="2.667"/>
			<rect x="66.667" y="279.392" style="fill:#407BFF;" width="79.704" height="2.667"/>
			<rect x="136.711" y="294.767" style="fill:#407BFF;" width="19.667" height="2.667"/>
		</g>
		<g style="opacity:0.2;enable-background:new    ;">
			<rect x="66.667" y="149.676" style="fill:#FFFFFF;" width="19.667" height="2.667"/>
			<rect x="66.667" y="155.676" style="fill:#FFFFFF;" width="19.667" height="2.667"/>
			<rect x="136.711" y="149.676" style="fill:#FFFFFF;" width="19.667" height="2.667"/>
			<rect x="100.044" y="137.333" style="fill:#FFFFFF;" width="19.667" height="2.667"/>
			<rect x="66.667" y="132.667" style="fill:#FFFFFF;" width="89.711" height="2.667"/>
			<rect x="76.673" y="164" style="fill:#FFFFFF;" width="79.704" height="2.667"/>
			<rect x="66.667" y="169.333" style="fill:#FFFFFF;" width="89.711" height="2.667"/>
			<rect x="66.667" y="174.667" style="fill:#FFFFFF;" width="89.711" height="2.667"/>
			<rect x="66.667" y="180" style="fill:#FFFFFF;" width="89.711" height="2.667"/>
			<rect x="66.667" y="185.333" style="fill:#FFFFFF;" width="79.704" height="2.667"/>
			<rect x="76.673" y="195.02" style="fill:#FFFFFF;" width="79.704" height="2.667"/>
			<rect x="66.667" y="200.353" style="fill:#FFFFFF;" width="89.711" height="2.667"/>
			<rect x="66.667" y="205.686" style="fill:#FFFFFF;" width="89.711" height="2.667"/>
			<rect x="66.667" y="211.02" style="fill:#FFFFFF;" width="89.711" height="2.667"/>
			<rect x="66.667" y="216.353" style="fill:#FFFFFF;" width="79.704" height="2.667"/>
			<rect x="76.673" y="226.039" style="fill:#FFFFFF;" width="79.704" height="2.667"/>
			<rect x="66.667" y="231.372" style="fill:#FFFFFF;" width="89.711" height="2.667"/>
			<rect x="66.667" y="236.706" style="fill:#FFFFFF;" width="89.711" height="2.667"/>
			<rect x="66.667" y="242.039" style="fill:#FFFFFF;" width="89.711" height="2.667"/>
			<rect x="66.667" y="247.372" style="fill:#FFFFFF;" width="79.704" height="2.667"/>
			<rect x="76.673" y="258.059" style="fill:#FFFFFF;" width="79.704" height="2.667"/>
			<rect x="66.667" y="263.392" style="fill:#FFFFFF;" width="89.711" height="2.667"/>
			<rect x="66.667" y="268.726" style="fill:#FFFFFF;" width="89.711" height="2.667"/>
			<rect x="66.667" y="274.059" style="fill:#FFFFFF;" width="89.711" height="2.667"/>
			<rect x="66.667" y="279.392" style="fill:#FFFFFF;" width="79.704" height="2.667"/>
			<rect x="136.711" y="294.767" style="fill:#FFFFFF;" width="19.667" height="2.667"/>
		</g>
	</g>
</g>
<g id="Data4">
	<g>
		<path style="opacity:0.1;enable-background:new    ;" d="M166.631,315.433h-55.607c-1.308,0-2.369-1.061-2.369-2.369v-45.395
			c0-1.308,1.061-2.369,2.369-2.369h55.607c1.308,0,2.369,1.061,2.369,2.369v45.395C169,314.373,167.939,315.433,166.631,315.433z"
			/>
		<g>
			<path style="fill:#407BFF;" d="M174.074,324.921h-55.607c-1.308,0-2.369-1.061-2.369-2.369v-45.395
				c0-1.308,1.061-2.369,2.369-2.369h55.607c1.308,0,2.369,1.061,2.369,2.369v45.395
				C176.442,323.861,175.382,324.921,174.074,324.921z"/>
			<path style="opacity:0.3;fill:#FFFFFF;enable-background:new    ;" d="M174.074,324.921h-55.607
				c-1.308,0-2.369-1.061-2.369-2.369v-45.395c0-1.308,1.061-2.369,2.369-2.369h55.607c1.308,0,2.369,1.061,2.369,2.369v45.395
				C176.442,323.861,175.382,324.921,174.074,324.921z"/>
		</g>
		<g>
			<rect x="122" y="304" style="fill:#407BFF;" width="12" height="6"/>
			<rect x="135" y="304" style="fill:#407BFF;" width="34" height="6"/>
			<rect x="122" y="296" style="fill:#407BFF;" width="12" height="7"/>
			<rect x="122" y="289" style="fill:#407BFF;" width="12" height="6"/>
			<rect x="135" y="296" style="fill:#407BFF;" width="34" height="7"/>
			<rect x="135" y="311" style="fill:#407BFF;" width="34" height="7"/>
			<rect x="135" y="289" style="fill:#407BFF;" width="34" height="6"/>
			<rect x="122" y="311" style="fill:#407BFF;" width="12" height="7"/>
			<rect x="122" y="281" style="fill:#407BFF;" width="12" height="7"/>
			<rect x="135" y="281" style="fill:#407BFF;" width="34" height="7"/>
		</g>
	</g>
</g>
<g id="Data3">
	<g>
		<path style="opacity:0.1;enable-background:new    ;" d="M183.901,228.752h-55.607c-1.308,0-2.369-1.061-2.369-2.369v-45.395
			c0-1.308,1.061-2.369,2.369-2.369h55.607c1.308,0,2.369,1.061,2.369,2.369v45.395C186.27,227.692,185.209,228.752,183.901,228.752
			z"/>
		<g>
			<path style="fill:#407BFF;" d="M195.074,226.383h-55.607c-1.308,0-2.369-1.061-2.369-2.369V178.62
				c0-1.308,1.061-2.369,2.369-2.369h55.607c1.308,0,2.369,1.061,2.369,2.369v45.395
				C197.442,225.323,196.382,226.383,195.074,226.383z"/>
			<path style="opacity:0.3;fill:#FFFFFF;enable-background:new    ;" d="M195.074,226.383h-55.607
				c-1.308,0-2.369-1.061-2.369-2.369V178.62c0-1.308,1.061-2.369,2.369-2.369h55.607c1.308,0,2.369,1.061,2.369,2.369v45.395
				C197.442,225.323,196.382,226.383,195.074,226.383z"/>
		</g>
		<g>
			<rect x="176" y="183" style="fill:#407BFF;" width="15" height="7"/>
			<rect x="160" y="183" style="fill:#407BFF;" width="15" height="7"/>
			<rect x="160" y="190" style="fill:#407BFF;" width="15" height="30"/>
			<rect x="176" y="190" style="fill:#407BFF;" width="15" height="30"/>
			<rect x="144" y="183" style="fill:#407BFF;" width="15" height="7"/>
			<rect x="144" y="190" style="fill:#407BFF;" width="15" height="30"/>
		</g>
	</g>
</g>
<g id="Data2">
	<g>
		<path style="opacity:0.1;enable-background:new    ;" d="M202.804,281.367h-55.607c-1.308,0-2.369-1.061-2.369-2.369v-45.395
			c0-1.308,1.061-2.369,2.369-2.369h55.607c1.308,0,2.369,1.061,2.369,2.369v45.395
			C205.172,280.306,204.112,281.367,202.804,281.367z"/>
		<g>
			<path style="fill:#407BFF;" d="M223.074,278.152h-55.607c-1.308,0-2.369-1.061-2.369-2.369v-45.395
				c0-1.308,1.061-2.369,2.369-2.369h55.607c1.308,0,2.369,1.061,2.369,2.369v45.395
				C225.442,277.092,224.382,278.152,223.074,278.152z"/>
			<path style="opacity:0.3;fill:#FFFFFF;enable-background:new    ;" d="M223.074,278.152h-55.607
				c-1.308,0-2.369-1.061-2.369-2.369v-45.395c0-1.308,1.061-2.369,2.369-2.369h55.607c1.308,0,2.369,1.061,2.369,2.369v45.395
				C225.442,277.092,224.382,278.152,223.074,278.152z"/>
		</g>
		<g>
			<rect x="196" y="235" style="fill:#407BFF;" width="23" height="17"/>
			<rect x="172" y="235" style="fill:#407BFF;" width="23" height="17"/>
			<rect x="172" y="253" style="fill:#407BFF;" width="23" height="19"/>
			<rect x="196" y="253" style="fill:#407BFF;" width="23" height="19"/>
		</g>
		<path style="opacity:0.2;enable-background:new    ;" d="M225,230.39V264h-20.73c-2.6,0-4.27-1.86-4.27-4.46V228h23.07
			C224.38,228,225,229.08,225,230.39z"/>
	</g>
</g>
<g id="Data1">
	<g>
		<path style="opacity:0.1;enable-background:new    ;" d="M204.067,181.62H148.46c-1.308,0-2.369-1.061-2.369-2.369v-45.395
			c0-1.308,1.061-2.369,2.369-2.369h55.607c1.308,0,2.369,1.061,2.369,2.369v45.395C206.436,180.56,205.376,181.62,204.067,181.62z"
			/>
		<g>
			<path style="fill:#407BFF;" d="M214.074,172.615h-55.607c-1.308,0-2.369-1.061-2.369-2.369v-45.395
				c0-1.308,1.061-2.369,2.369-2.369h55.607c1.308,0,2.369,1.061,2.369,2.369v45.395
				C216.442,171.554,215.382,172.615,214.074,172.615z"/>
			<path style="opacity:0.3;fill:#FFFFFF;enable-background:new    ;" d="M214.074,172.615h-55.607
				c-1.308,0-2.369-1.061-2.369-2.369v-45.395c0-1.308,1.061-2.369,2.369-2.369h55.607c1.308,0,2.369,1.061,2.369,2.369v45.395
				C216.442,171.554,215.382,172.615,214.074,172.615z"/>
		</g>
		<g>
			<rect x="180" y="129" style="fill:#407BFF;" width="19" height="5"/>
			<rect x="180" y="135" style="fill:#407BFF;" width="9" height="31"/>
			<rect x="200" y="129" style="fill:#407BFF;" width="10" height="5"/>
			<rect x="200" y="135" style="fill:#407BFF;" width="10" height="31"/>
			<rect x="190" y="135" style="fill:#407BFF;" width="9" height="31"/>
			<rect x="163" y="135" style="fill:#407BFF;" width="16" height="31"/>
			<rect x="163" y="129" style="fill:#407BFF;" width="16" height="5"/>
		</g>
	</g>
</g>
<g id="Visual4">
	<g>
		<g>
			<path style="fill:#407BFF;" d="M380.092,317.194h-68.088c-2.599,0-4.706-2.107-4.706-4.706V244.4
				c0-2.599,2.107-4.706,4.706-4.706h68.088c2.599,0,4.706,2.107,4.706,4.706v68.088
				C384.798,315.087,382.691,317.194,380.092,317.194z"/>
			<g>
				<rect x="317.423" y="249.819" style="opacity:0.25;fill:#FFFFFF;" width="57.577" height="57.25"/>
				<polygon style="opacity:0.25;fill:#FFFFFF;" points="317.423,307 332.082,294.948 336.874,298.807 352.052,285.987 
					359.507,293.327 375,280.333 375,307 				"/>
				<polygon style="opacity:0.25;fill:#FFFFFF;" points="317.423,307 329.833,283.718 344.335,285.983 355.167,271.825 
					366.333,273.829 375,265.167 375,307 				"/>
				<polygon style="opacity:0.25;fill:#FFFFFF;" points="317.423,307 346.048,303.465 355.333,298.816 365.333,299.825 375,295 
					375,307 				"/>
			</g>
		</g>
		<path style="opacity:0.2;enable-background:new    ;" d="M377,240v8.04c0,2.6-2.44,4.96-5.04,4.96H316v23.48
			c0,2.6-2.36,4.52-4.96,4.52H307v-36.6c0-2.6,2.4-4.4,5-4.4H377z"/>
	</g>
</g>
<g id="Visual3">
	<g>
		<g>
			<path style="fill:#407BFF;" d="M285.705,251.383h-68.088c-2.599,0-4.706-2.107-4.706-4.706v-68.088
				c0-2.599,2.107-4.706,4.706-4.706h68.088c2.599,0,4.706,2.107,4.706,4.706v68.088
				C290.411,249.277,288.304,251.383,285.705,251.383z"/>
			<g>
				<path style="opacity:0.8;fill:#FFFFFF;" d="M261.504,195h-20.007c-0.481,0-0.871-0.39-0.871-0.871v-11.292
					c0-0.481,0.39-0.871,0.871-0.871h20.007c0.481,0,0.871,0.39,0.871,0.871v11.292C262.375,194.61,261.985,195,261.504,195z"/>
				<path style="opacity:0.6;fill:#FFFFFF;" d="M246.241,219.95h-15.848c-0.481,0-0.871-0.39-0.871-0.871v-8.207
					c0-0.481,0.39-0.871,0.871-0.871h15.848c0.481,0,0.871,0.39,0.871,0.871v8.207C247.112,219.56,246.722,219.95,246.241,219.95z"
					/>
				<path style="opacity:0.6;fill:#FFFFFF;" d="M272.93,219.95h-15.848c-0.481,0-0.871-0.39-0.871-0.871v-8.207
					c0-0.481,0.39-0.871,0.871-0.871h15.848c0.481,0,0.871,0.39,0.871,0.871v8.207C273.801,219.56,273.411,219.95,272.93,219.95z"/>
				<g>
					<path style="opacity:0.4;fill:#FFFFFF;" d="M256.52,239.554h-7.49c-0.481,0-0.871-0.39-0.871-0.871v-6.756
						c0-0.481,0.39-0.871,0.871-0.871h7.49c0.481,0,0.871,0.39,0.871,0.871v6.756C257.391,239.163,257.001,239.554,256.52,239.554z"
						/>
					<path style="opacity:0.4;fill:#FFFFFF;" d="M268.245,239.554h-7.49c-0.481,0-0.871-0.39-0.871-0.871v-6.756
						c0-0.481,0.39-0.871,0.871-0.871h7.49c0.481,0,0.871,0.39,0.871,0.871v6.756C269.116,239.163,268.726,239.554,268.245,239.554z
						"/>
					<path style="opacity:0.4;fill:#FFFFFF;" d="M279.971,239.554h-7.49c-0.481,0-0.871-0.39-0.871-0.871v-6.756
						c0-0.481,0.39-0.871,0.871-0.871h7.49c0.481,0,0.871,0.39,0.871,0.871v6.756C280.842,239.163,280.452,239.554,279.971,239.554z
						"/>
				</g>
				<path style="opacity:0.4;fill:#FFFFFF;" d="M229.387,239.554h-7.49c-0.481,0-0.871-0.39-0.871-0.871v-6.756
					c0-0.481,0.39-0.871,0.871-0.871h7.49c0.481,0,0.871,0.39,0.871,0.871v6.756C230.259,239.163,229.869,239.554,229.387,239.554z"
					/>
				<path style="opacity:0.4;fill:#FFFFFF;" d="M242.114,239.554h-7.49c-0.481,0-0.871-0.39-0.871-0.871v-6.756
					c0-0.481,0.39-0.871,0.871-0.871h7.49c0.481,0,0.871,0.39,0.871,0.871v6.756C242.985,239.163,242.595,239.554,242.114,239.554z"
					/>
				<g style="opacity:0.3;">
					<polygon style="fill:#FFFFFF;" points="264,210 265,210 265,203 252,203 252,195 251,195 251,203 238,203 238,210 239,210 
						239,204 264,204 					"/>
					<polygon style="fill:#FFFFFF;" points="238,226 225,226 225,231 226,231 226,227 238,227 238,231 239,231 239,220 238,220 
											"/>
					<polygon style="fill:#FFFFFF;" points="265,227 265,220 264,220 264,227 252,227 252,231 253,231 253,228 264,228 264,231 
						265,231 265,228 276,228 276,231 277,231 277,227 					"/>
				</g>
			</g>
		</g>
		<path style="opacity:0.2;enable-background:new    ;" d="M290,178.59V201h-54.93c-2.6,0-5.07-2.36-5.07-4.96V174h55.71
			C288.3,174,290,175.99,290,178.59z"/>
	</g>
</g>
<g id="Visual2">
	<g>
		<g>
			<path style="fill:#407BFF;" d="M391.973,217.686h-68.088c-2.599,0-4.706-2.107-4.706-4.706v-68.088
				c0-2.599,2.107-4.706,4.706-4.706h68.088c2.599,0,4.706,2.107,4.706,4.706v68.088
				C396.679,215.579,394.572,217.686,391.973,217.686z"/>
			<g>
				<rect x="329.14" y="150.311" style="opacity:0.25;fill:#FFFFFF;" width="57.577" height="57.25"/>
				<g>
					<g>
						<rect x="335.017" y="185.504" style="opacity:0.35;fill:#FFFFFF;" width="5.798" height="14.866"/>
						<rect x="335.017" y="185.504" style="opacity:0.35;fill:#FFFFFF;" width="5.798" height="22.057"/>
					</g>
					<g>
						<rect x="345.023" y="175.083" style="opacity:0.35;fill:#FFFFFF;" width="5.798" height="21.89"/>
						<rect x="345.023" y="175.083" style="opacity:0.35;fill:#FFFFFF;" width="5.798" height="32.478"/>
					</g>
					<g>
						<rect x="355.03" y="181.492" style="opacity:0.35;fill:#FFFFFF;" width="5.798" height="17.57"/>
						<rect x="355.03" y="181.492" style="opacity:0.35;fill:#FFFFFF;" width="5.798" height="26.069"/>
					</g>
					<g>
						<rect x="365.036" y="172.492" style="opacity:0.35;fill:#FFFFFF;" width="5.798" height="23.636"/>
						<rect x="365.036" y="172.492" style="opacity:0.35;fill:#FFFFFF;" width="5.798" height="35.069"/>
					</g>
					<g>
						<rect x="375.042" y="158.742" style="opacity:0.35;fill:#FFFFFF;" width="5.798" height="32.903"/>
						<rect x="375.042" y="158.742" style="opacity:0.35;fill:#FFFFFF;" width="5.798" height="48.819"/>
					</g>
				</g>
			</g>
		</g>
		<path style="opacity:0.2;enable-background:new    ;" d="M340,140v42.4c0,2.6-2.23,4.6-4.83,4.6H319v-42.11
			c0-2.6,2.29-4.89,4.88-4.89H340z"/>
	</g>
</g>
<g id="Visual1">
	<g>
		<path style="fill:#407BFF;" d="M328.066,164.535h-68.088c-2.599,0-4.706-2.107-4.706-4.706V91.741
			c0-2.599,2.107-4.706,4.706-4.706h68.088c2.599,0,4.706,2.107,4.706,4.706v68.088
			C332.772,162.428,330.665,164.535,328.066,164.535z"/>
		<g>
			
				<ellipse transform="matrix(0.1602 -0.9871 0.9871 0.1602 122.7642 395.8625)" style="opacity:0.25;fill:#FFFFFF;" cx="294.022" cy="125.785" rx="25.414" ry="25.414"/>
			<path style="opacity:0.25;fill:#FFFFFF;" d="M294.022,125.785l24.967,4.747c-2.271,11.943-12.809,20.667-24.967,20.667
				c-13.942,0-25.414-11.472-25.414-25.414c0-13.942,11.472-25.414,25.414-25.414V125.785z"/>
			<path style="opacity:0.25;fill:#FFFFFF;" d="M294.022,125.785l-0.075,25.414c-13.914-0.041-25.34-11.501-25.34-25.414
				c0-13.942,11.472-25.414,25.414-25.414V125.785z"/>
			<path style="opacity:0.25;fill:#FFFFFF;" d="M294.022,125.785l-13.396-21.597c1.99-1.234,4.141-2.188,6.392-2.833
				c2.251-0.645,4.58-0.977,6.922-0.984L294.022,125.785z"/>
		</g>
	</g>
</g>
<g id="Character">
	<g id="_x3C_Group_x3E__22_">
		<path style="fill:#E4897B;" d="M428.25,176c0,0,13.5,23.662,14.5,29.331s-11.5,41.919-11.5,41.919s2.75,9.543-0.25,11.147
			c-3,1.603-8.242,4.853-8.996,2.103s0-11.82,0-11.82l2.254-1.93c0,0,7.968-37.878,7.98-39.189
			c0.012-1.311-14.511-23.649-14.511-23.649L428.25,176z"/>
		<polygon style="fill:#E4897B;" points="378.48,407.03 370.37,407.88 369.96,403.18 368.85,390.39 376.96,389.53 378.19,403.66 		
			"/>
		<polygon style="fill:#E4897B;" points="418.96,406 411.1,406 411.03,404.22 411.02,404 410.62,392.6 410.61,392.37 410.45,388 
			418.32,388 		"/>
		<polygon style="opacity:0.2;enable-background:new    ;" points="376.96,389.53 378.19,403.66 369.96,403.18 368.85,390.39 		"/>
		<polygon style="opacity:0.2;enable-background:new    ;" points="418.91,405 418.9,405 411.03,404 411.02,404 410.61,393 
			410.62,393 418.5,393.63 418.9,404.655 		"/>
		<path style="fill:#263238;" d="M437.28,187.33l-13.53,9.2l-0.26-0.33l-8.21-10.7l-5.03-6.56l7.43-20.2
			C426.25,162,437.28,187.33,437.28,187.33z"/>
		<path style="opacity:0.2;enable-background:new    ;" d="M423.49,196.2l-8.21-10.7l6.59-10.11
			C421.87,175.39,425.9,185.83,423.49,196.2z"/>
		<path style="fill:#263238;" d="M410.01,405.527h9.55c0.322,0.002,0.6,0.226,0.67,0.54l1.55,7c0.133,0.627-0.268,1.242-0.895,1.375
			c-0.084,0.018-0.169,0.026-0.255,0.025c-3.09-0.05-5.34-0.24-9.22-0.24c-2.39,0-9.6,0.25-12.9,0.25c-3.3,0-3.73-3.26-2.38-3.56
			c6.06-1.32,10.62-3.15,12.56-4.89C409.05,405.697,409.522,405.518,410.01,405.527z"/>
		<path style="fill:#263238;" d="M369.51,405.277h9.55c0.322,0.002,0.6,0.226,0.67,0.54l1.55,7c0.133,0.627-0.268,1.242-0.895,1.375
			c-0.084,0.018-0.169,0.026-0.255,0.025c-3.09-0.05-5.34-0.24-9.22-0.24c-2.39,0-9.6,0.25-12.9,0.25c-3.3,0-3.73-3.26-2.38-3.56
			c6.06-1.32,10.62-3.15,12.56-4.89C368.55,405.447,369.022,405.268,369.51,405.277z"/>
		<path style="fill:#407BFF;" d="M368.105,402h11.53c0,0-0.94-99.255,11.53-132.775c0.88,11.08,1.87,22.577,2.84,32.158
			c0.61,5.93,1.21,11.024,1.78,14.904c3.63,25,12.79,86.714,12.79,86.714h11.39c0,0-1.35-59.135-2.7-83.705
			c-1.49-26.67-2.13-85.295-2.19-90.295h-41.72C369.385,250,359.205,334,368.105,402z"/>
		<path style="opacity:0.6;fill:#FFFFFF;enable-background:new    ;" d="M368.105,402h11.53c0,0-0.94-99.255,11.53-132.775
			c0.88,11.08,1.87,22.577,2.84,32.158c0.61,5.93,1.21,11.024,1.78,14.904c3.63,25,12.79,86.714,12.79,86.714h11.39
			c0,0-1.35-59.135-2.7-83.705c-1.49-26.67-2.13-85.295-2.19-90.295h-41.72C369.385,250,359.205,334,368.105,402z"/>
		<g>
			<path style="fill:#E4897B;" d="M388.505,140.872c0.098,0.382,0.207,0.755,0.339,1.112c0.77,2.159,2.163,3.936,3.89,5.182
				c0.451,0.33,0.929,0.624,1.423,0.88c2.612,1.345,5.714,1.596,8.517,0.377c1.147-0.485,2.257-1.231,3.251-2.249
				c3.939-3.978,3.834-8.57,4.278-16.345c0.121-1.673-0.143-3.351-0.795-4.891c-2.255-5.433-8.494-8-13.917-5.743
				C387.864,122.304,386.819,133.872,388.505,140.872z"/>
			<path style="opacity:0.2;enable-background:new    ;" d="M392.733,147.165c0.451,0.33,0.929,0.624,1.423,0.88
				c2.612,1.345,5.714,1.596,8.517,0.377c-0.547-1.502-1.389-2.639-1.389-2.639S396.638,145.068,392.733,147.165z"/>
			<path style="fill:#E4897B;" d="M408.38,157.25c-3.83,3.48-13.213,2.193-13.213,2.193s-5.857-1.603-4.627-3.433
				c3.45-0.57,5.12-2.18,5.81-4.24c0.4-1.2,0.46-2.55,0.35-3.94c-0.05-0.73-0.16-1.47-0.29-2.2l11.6-8.59
				C406.49,142.71,404.63,153.14,408.38,157.25z"/>
			<path style="fill:#263238;" d="M392.227,124.392c0.084,0.218-0.119,0.666-0.264,1.182c-0.28,0.996-0.42,2.033-0.423,3.068
				c-0.011,3.447,1.603,6.59,4.024,8.981c0.865,3.138,2.037,6.211,3.5,9.105c0.147,0.291,0.306,0.596,0.579,0.775
				c0.322,0.211,0.734,0.205,1.118,0.192c2.259-0.078,4.517-0.157,6.776-0.235c0.4-0.014,0.858-0.057,1.094-0.38
				c0.129-0.177,0.163-0.405,0.248-0.607c0.614-1.464,3.195-0.77,4.085-2.085c0.362-0.535,0.314-1.242,0.524-1.853
				c0.557-1.623,2.857-2.468,2.773-4.182c-0.049-0.996-0.959-1.903-0.684-2.861c0.27-0.939,1.501-1.259,1.961-2.121
				c0.47-0.88-0.022-1.952-0.551-2.798c-0.53-0.846-1.131-1.811-0.859-2.771c0.108-0.381,0.345-0.709,0.521-1.063
				c0.665-1.332,0.382-3.075-0.671-4.128c-0.423-0.424-0.963-0.755-1.241-1.285c-0.459-0.877-0.07-2.051-0.628-2.869
				c-0.553-0.811-1.714-0.847-2.694-0.789c-0.979,0.058-2.134,0.05-2.718-0.738c-0.418-0.564-0.402-1.376-0.863-1.904
				c-0.654-0.748-1.859-0.539-2.781-0.17c-0.922,0.369-1.956,0.839-2.858,0.425c-0.622-0.285-1.002-0.927-1.568-1.311
				c-0.791-0.536-1.937-0.472-2.663,0.149c-0.504,0.43-0.807,1.081-1.374,1.424c-0.796,0.482-1.809,0.205-2.714-0.011
				c-0.905-0.216-2.015-0.29-2.607,0.427c-0.843,1.021,0.068,2.788-0.791,3.795c-0.493,0.578-1.386,0.654-1.92,1.194
				c-0.736,0.745-0.282,2.249,0.743,2.463c0.302,0.063,0.69,0.078,0.801,0.365c0.046,0.119,0.025,0.254,0.06,0.376
				c0.111,0.386,0.656,0.41,1.035,0.277C391.882,124.188,392.156,124.209,392.227,124.392z"/>
			<path style="fill:#E4897B;" d="M397.152,134.349c-0.465,1.692-1.395,2.934-2.588,3.454c-1.584,0.672-2.623-1.559-2.395-3.897
				c0.217-2.072,1.29-4.988,2.984-4.603C396.849,129.689,397.704,132.258,397.152,134.349z"/>
		</g>
		<path style="opacity:0.2;enable-background:new    ;" d="M391.165,269.18c0.88,11.08,1.87,22.6,2.84,32.18
			c1.42-13.83,3.16-23.69,3.16-23.69s1.63-1.34,6.11-8.49c4.48-7.16,0-20.5,0-20.5C403.415,261.08,391.165,269.18,391.165,269.18z"
			/>
		<path style="fill:#263238;" d="M417,237.33L369.33,235c0,0,1.37-26.27,6.34-51.75c1.38-7.04,3.02-14.01,5-20.36
			c1.1-3.57,2.31-6.94,3.63-10.01c0,0,29.63,2.45,35.67,7.12C426,164.67,416.67,213,417,237.33z"/>
		<path style="fill:#263238;" d="M392.138,153.677c0,0,4.529-3.555,13.029-3.366s9.333,3.366,9.333,3.366s9.333,4.656,2,12.323
			s-21.772-11.761-21.772-11.761L392.138,153.677z"/>
		<path style="opacity:0.25;fill:#FFFFFF;" d="M392.138,153.677c0,0,4.529-3.555,13.029-3.366s9.333,3.366,9.333,3.366
			s9.333,4.656,2,12.323s-21.772-11.761-21.772-11.761L392.138,153.677z"/>
		<path style="opacity:0.2;enable-background:new    ;" d="M385.05,163.5c0,0-2.07,13.53-9.38,19.75c1.38-7.04,3.02-14.01,5-20.36
			L385.05,163.5z"/>
		<path style="fill:#E4897B;" d="M378.941,153.06c0,0-29.608-6.055-33.775-7.641C341,143.833,319,122.785,319,122.785l-4.82,3.643
			c0,0,16.485,21.405,24.736,27.572c8.251,6.167,37.126,15.492,37.126,15.492L378.941,153.06z"/>
		<path style="fill:#263238;enable-background:new    ;" d="M385.122,153.06l-25.789-4.712l-0.667,17.819L377.941,174
			C377.941,174,390.093,161.807,385.122,153.06z"/>
		<path style="fill:#E4897B;" d="M319,122.785c-2.375-2.704-11.02-8.559-12.27-9.059s-3.113,7.149-2.738,8.149
			s4.613,3.125,6.748,3.375s4.425,2.442,4.425,2.442L319,122.785z"/>
		<g>
			<polygon style="fill:#263238;" points="357.929,147.699 360.763,148.348 359.471,166.493 356.762,165.5 			"/>
			<polygon style="opacity:0.25;fill:#FFFFFF;" points="357.929,147.699 360.763,148.348 359.471,166.493 356.762,165.5 			"/>
		</g>
		<g>
			<polygon style="fill:#263238;" points="422.004,196.376 437.284,186.028 438.333,188.667 423.767,197.833 			"/>
			<polygon style="opacity:0.25;fill:#FFFFFF;" points="422.004,196.376 437.284,186.028 438.333,188.667 423.767,197.833 			"/>
		</g>
		<polygon style="fill:#407BFF;" points="366.813,398.75 367.375,402 381,402 381,399 		"/>
		<polygon style="fill:#407BFF;" points="407.267,400 408.575,403 420,403 420.75,400 		"/>
	</g>
</g>
</svg>
